<svg xmlns="http://www.w3.org/2000/svg" xmlns:xlink="http://www.w3.org/1999/xlink" viewBox="0 0 157 157"><defs><clipPath id="a" transform="translate(0 0)"><path d="M112,66.7V52.3H94.5V66.7Zm2.5-22.9c.1,0,.2,0,.4.2l5.1,4.1c.2.2.3.3.3.4a.2.2,0,0,1,0,.3c0,.1,0,.2-.2.4l-1.2,1.5V69.2a6.9,6.9,0,0,1-6.6,6.9H112v-5H94.2a6.9,6.9,0,0,1-6.4,5h-.2V48.7c0-.3,0-.4.1-.5a.2.2,0,0,1,.2-.2h22.8l3.1-3.8.3-.3ZM62.9,71.7H44.7v6.9H62.9Zm0,11.3H44.7v6.9H62.9Zm31.6,1.2H86.3v18.2h8.2Zm25.7,0H112v18.2h8.2Zm2.3-7.8a.6.6,0,0,1,.5.2l4,3.3h.1l1,.8.3.4v.3c0,.1,0,.2-.2.4l-1.1,1.4v24.9a7,7,0,0,1-6.7,6.9h-.2v-8.2H112v1.3a6.9,6.9,0,0,1-6.6,6.9h-.3V80.2l.3-.3h13.8l2.5-3.2.4-.3A.2.2,0,0,1,122.5,76.4Zm-25.7,0,.5.2,4,3.3h.1l.9.8.4.4v.3l-.2.4-1.1,1.4v24.9a7,7,0,0,1-6.7,6.9h-.2v-8.2H86.3v1.3a6.9,6.9,0,0,1-6.6,6.9h-.3V80.2l.3-.3H93.6l2.5-3.2.4-.3A.2.2,0,0,1,96.8,76.4ZM44.9,43.5l10.2,3a.6.6,0,0,1,.4.8.5.5,0,0,1-.3.4l-3.9,1.9c-.4,1.3-.9,2.6-1.3,3.9H66.9l2.3-2.7a.6.6,0,0,1,.9,0l7.7,6a.6.6,0,0,1,.1.9l-.5.2H48.2a91.5,91.5,0,0,1-4.7,9.4H61.9L64.6,64l.3-.4h.4l.4.3L70.8,68q.3.1.3.3c0,.1.1.3,0,.4s0,.2-.2.4l-1.1,1.3v37.7a6.9,6.9,0,0,1-6.6,6.9h-.3V94.3H44.7v13.8a6.9,6.9,0,0,1-6.6,6.9h-.3V75.8A81.1,81.1,0,0,1,26.6,88l-.7-.5A97.8,97.8,0,0,0,41.3,57.9H26.2l-.2-.2a2,2,0,0,1-.1-.5V54.3a2,2,0,0,1,.1-.5l.2-.2H42.6C43.5,50.3,44.2,46.9,44.9,43.5Z" style="fill:none;clip-rule:evenodd"/></clipPath><clipPath id="b" transform="translate(0 0)"><rect x="-0.2" y="0.5" width="157" height="157" style="fill:none"/></clipPath></defs><title>未标题-4</title><rect width="157" height="157" rx="30" style="fill:#af8747"/><g style="clip-path:url(#a)"><g style="clip-path:url(#b)"><rect x="24.9" y="42.5" width="104.5" height="73.48" style="fill:#fff"/></g></g></svg>